<?xml version="1.0" encoding="utf-8"?>
<!-- Generator: Adobe Illustrator 27.5.0, SVG Export Plug-In . SVG Version: 6.00 Build 0)  -->
<svg version="1.1" xmlns="http://www.w3.org/2000/svg" xmlns:xlink="http://www.w3.org/1999/xlink" x="0px" y="0px"
	 viewBox="0 0 750 500" style="enable-background:new 0 0 750 500;" xml:space="preserve">
<g id="BACKGROUND">
	<g>
		<g>
			<g>
				<rect x="0" y="0" style="fill:#2E4050;" width="750" height="500"/>
			</g>
		</g>
	</g>
	<g style="opacity:0.42;">
		<g>
			<g>
				<g>
					<g>
						<path style="fill:#2E2F38;" d="M45.332,238.956c17.446,1.052,33.888-3.919,46.737-12.701
							c24.945-17.049,41.756-39.645,63.187-58.985c10.184-9.19,21.505-17.701,34.603-24.533
							c15.343-8.002,32.815-14.145,49.572-20.268c31.514-11.516,64.441-20.968,99.017-25.637
							c38.643-5.218,77.639-4.051,116.354,0.106c41.68,4.475,82.643,12.084,124.307,16.61c19.833,2.155,41.153,2.176,60.743-1.155
							c15.787-2.684,31.011-8.098,44.246-15.092c22.348-11.81,38.053-29.041,46.699-48.43C737.8,33.17,740.5,16.551,740.632,0H0
							v224.21C12.994,231.982,28.614,237.948,45.332,238.956z"/>
					</g>
					<g>
						<path style="fill:#2E2F38;" d="M743.384,262.04c-11.075,17.299-24.388,33.075-38.56,47.904
							c-13.699,14.335-29.289,26.74-46.419,36.736c-34.412,20.081-73.637,29.901-112.956,34.37c-21.3,2.421-42.73,3.051-64.047,0.45
							c-19.763-2.411-39.067-7.468-57.761-14.256c-20.033-7.275-39.041-16.637-58.339-25.597
							c-17.658-8.199-37.101-15.364-56.9-13.171c-21.408,2.371-37.141,15.824-52.538,29.683c-5.393,4.854-10.964,9.724-17.75,12.521
							c-7.401,3.051-15.464,3.34-23.358,2.921c-23.062-1.223-44.994-8.795-67.407-13.641c-18.666-4.036-37.783-5.59-56.814-3.654
							c-32.643,3.321-65.249,16.545-88.082,40.628C1.615,397.816,0.8,398.713,0,399.619V500h750V250.984
							C747.905,254.734,745.7,258.423,743.384,262.04z"/>
					</g>
				</g>
			</g>
		</g>
	</g>
	<path style="fill:#FFFFFF;" d="M766.207,28.748"/>
</g>
<g id="OBJECTS">
	<g>
		<g>
			<path style="fill:#E09C43;" d="M0,0v115.401c6.74,5.747,14.167,10.796,21.794,15.091c32.263,18.167,65.161,32.593,104.486,32.637
				c40.421,0.045,79.141-19.959,112.381-38.418c31.518-17.502,112.344-113.19,326.144-49.244
				C657.874,103.303,701.725,52.616,716.626,0H0z"/>
		</g>
		<g>
			<path style="fill:#FFFFFF;" d="M685.357,34.577c-7.62,11.72-12.604,17.136-28.153,17.136s-30.559-7.592-28.153-17.136
				c2.406-9.545,13.772-11.848,28.153-17.136S692.977,22.857,685.357,34.577z"/>
		</g>
		<g>
			<path style="fill:#FFFFFF;" d="M627.552,52.778c-0.631-0.687-10.456-4.423-14.39-2.434c-2.912,1.472-0.421,8.642,0.065,9.146
				c2.635,2.736,7.668,3.232,11.003,1.997C627.722,60.194,630.705,56.211,627.552,52.778z"/>
		</g>
		<g>
			<path style="fill:#4993D1;" d="M0,0v269.371c106.054,47.917,62.91-106.241,194.377-187.757
				c29.411-18.236,70.674,41.105,130.973-37.421C364.165-6.356,430.861,14.53,459.893,17.157
				c13.914,1.259,27.163-2.967,30.855-17.158H0z"/>
		</g>
		<path style="fill:#FFFFFF;" d="M238.333,0c-9.247,21.131-20.908,34.465-37.524,42.957c-2.63,1.344-5.263,2.681-7.895,4.018
			c-33.371,16.945-67.879,34.467-92.613,65.769c-21.632,27.373-45.6,70.079-50.383,103.78c-1.77,12.469-1.266,25.37-0.778,37.847
			c0.886,22.683,1.723,44.107-9.727,63.813c-7.43,12.787-21.851,21.772-38.576,24.036c-0.281,0.038-0.558,0.059-0.838,0.092v3.027
			c0.413-0.048,0.825-0.091,1.24-0.147c17.636-2.387,32.876-11.92,40.768-25.501c11.888-20.46,10.994-43.326,10.131-65.438
			c-0.482-12.344-0.98-25.106,0.751-37.308c4.704-33.146,28.385-75.285,49.766-102.343c24.326-30.784,58.535-48.154,91.617-64.953
			c2.635-1.338,5.271-2.676,7.902-4.021c17.59-8.99,29.802-23.125,39.424-45.629H238.333z"/>
	</g>
	<g>
		<g>
			<path style="fill:#C83A3E;" d="M750,500V294.932C739.834,259.383,723.15,193.74,673.825,218
				c-31.729,15.606-13.998,96.626-51.566,95.636c-79.323-2.091,37.296,123.118-126.526,78.398c-14.897-4.067-26.305-0.141-37.948,10
				c-13.973,12.17-23.327,24.575-42.277,29.093c-29.221,6.968-265.003-99.604-321.22,68.873H750z"/>
		</g>
		<ellipse style="fill:#C83A3E;" cx="536.217" cy="359.149" rx="34.575" ry="24.311"/>
		<g>
			<path style="fill:#FFFFFF;" d="M750,127.271c-0.968,2.818-1.746,5.695-2.375,8.586c-1.036,4.783-1.681,9.605-2.243,14.39
				c-0.559,4.787-1.03,9.546-1.644,14.253c-0.617,4.761-1.171,9.565-1.633,14.352c-0.943,9.582-1.652,19.167-2.347,28.722
				c-0.681,9.556-1.369,19.088-2.351,28.56c-0.463,4.741-1.067,9.455-1.678,14.164l-1.021,7.051l-1.088,7.109
				c-1.446,9.448-2.987,18.808-5.384,27.856c-1.229,4.508-2.589,8.961-4.323,13.235c-1.742,4.265-3.758,8.398-6.235,12.209
				c-1.201,1.932-2.575,3.734-3.973,5.511c-1.457,1.725-2.946,3.426-4.596,4.964c-1.611,1.578-3.357,3.01-5.134,4.4
				c-0.932,0.644-1.803,1.349-2.783,1.948l-2.913,1.826c-7.786,4.868-16.571,7.781-25.646,9.123
				c-4.565,0.558-9.188,0.84-13.858,0.744c-4.67-0.107-9.362-0.406-14.08-0.916c-4.714-0.469-9.45-1.081-14.211-1.668
				c-4.747-0.605-9.589-1.14-14.295-1.671c-9.479-1.09-19.006-2.463-28.688-3.137c-9.66-0.697-19.521-0.738-29.22,0.892
				l-1.817,0.287l-1.802,0.384c-1.198,0.27-2.408,0.484-3.595,0.801l-3.552,0.981l-0.887,0.247l-0.871,0.299l-1.742,0.598
				c-4.665,1.537-9.182,3.726-13.341,6.334c-8.357,5.248-15.363,12.226-21.45,19.74c-3.043,3.771-5.853,7.707-8.527,11.719
				c-2.69,4.002-5.23,8.093-7.682,12.227c-4.89,8.278-9.499,16.691-14.265,24.985l-1.803,3.099l-1.922,2.986l-0.966,1.489
				l-0.486,0.742l-0.54,0.704l-2.156,2.815c-0.688,0.964-1.498,1.825-2.29,2.701l-2.378,2.624l-2.577,2.426l-1.288,1.214
				l-1.381,1.106l-2.765,2.206l-2.942,1.964l-1.471,0.98l-1.543,0.865l-3.087,1.722l-3.203,1.501
				c-0.537,0.243-1.06,0.516-1.607,0.735l-1.65,0.64c-1.104,0.417-2.191,0.875-3.306,1.259l-3.38,1.058
				c-1.118,0.377-2.272,0.643-3.418,0.929c-1.149,0.274-2.285,0.596-3.444,0.832c-2.326,0.437-4.63,0.96-6.982,1.258
				c-4.67,0.764-9.409,1.122-14.139,1.45c-18.989,1.014-38.066-0.646-57.322-1.076c-4.821-0.068-9.649-0.13-14.498,0.013
				c-2.421,0.037-4.851,0.161-7.278,0.301c-1.213,0.05-2.428,0.19-3.643,0.285c-1.214,0.118-2.429,0.182-3.643,0.345
				c-9.768,1.087-19.284,3.231-28.592,6.015c-9.311,2.791-18.453,6.222-27.218,10.556c-8.729,4.37-17.126,9.667-24.366,16.482
				c-2.992,2.835-5.752,5.966-8.118,9.398h6.051c1.69-2.029,3.533-3.944,5.485-5.736c6.842-6.233,14.924-11.135,23.366-15.215
				c8.455-4.096,17.348-7.357,26.415-9.994c4.533-1.326,9.125-2.449,13.734-3.461c2.303-0.515,4.623-0.968,6.923-1.337
				c2.295-0.431,4.63-0.691,6.957-0.989c9.342-1.019,18.838-1.294,28.365-1.285c9.534,0.013,19.115,0.231,28.729,0.275
				c9.615,0.014,19.273-0.164,28.914-0.989c4.815-0.492,9.634-1.016,14.399-1.955c2.394-0.385,4.751-0.999,7.118-1.526
				c1.18-0.282,2.342-0.65,3.513-0.971c1.169-0.332,2.342-0.645,3.484-1.07l3.448-1.187c1.141-0.419,2.256-0.913,3.384-1.366
				l1.687-0.694c0.56-0.238,1.096-0.529,1.645-0.792l3.274-1.615l3.155-1.841l1.574-0.925l1.501-1.042l2.994-2.089l2.835-2.301
				l1.416-1.151l1.32-1.26l2.638-2.52l2.431-2.717c0.809-0.907,1.635-1.8,2.336-2.794l2.195-2.906l0.548-0.727l0.494-0.764
				l0.98-1.532l1.968-3.058l1.827-3.105c4.843-8.292,9.422-16.708,14.443-24.839c2.498-4.072,5.076-8.089,7.791-12.002
				c2.734-3.9,5.609-7.692,8.679-11.304c6.146-7.194,13.108-13.738,21.15-18.492c4.034-2.355,8.262-4.253,12.744-5.581l1.674-0.52
				l0.836-0.26l0.852-0.209l3.404-0.83c1.136-0.267,2.297-0.434,3.443-0.657l1.723-0.315l1.741-0.22
				c4.628-0.667,9.325-0.845,14.018-0.838c4.696-0.019,9.41,0.322,14.122,0.752c9.425,0.915,18.869,2.373,28.41,3.646
				c4.807,0.632,9.486,1.2,14.24,1.859c4.745,0.64,9.507,1.311,14.325,1.847c4.804,0.575,9.682,0.947,14.59,1.113
				c4.915,0.156,9.88-0.079,14.834-0.634c9.878-1.323,19.7-4.475,28.253-9.689l3.199-1.957c1.071-0.642,2.084-1.429,3.127-2.139
				c2.017-1.533,4-3.125,5.812-4.904c1.857-1.733,3.538-3.637,5.171-5.572c1.57-1.983,3.104-4.001,4.44-6.137
				c5.472-8.495,8.969-17.946,11.431-27.428c2.424-9.516,3.901-19.12,5.267-28.624l1.02-7.112l0.972-7.186
				c0.586-4.8,1.083-9.608,1.479-14.413c0.828-9.612,1.354-19.213,1.869-28.787c0.493-9.577,0.952-19.126,1.664-28.641
				c0.162-2.381,0.383-4.753,0.577-7.129l0.673-7.125c0.479-4.816,0.807-9.609,1.215-14.357c0.111-1.283,0.231-2.564,0.36-3.844
				V127.271z"/>
		</g>
	</g>
</g>
</svg>
