<?xml version="1.0" encoding="utf-8"?>
<!-- Generator: Adobe Illustrator 27.5.0, SVG Export Plug-In . SVG Version: 6.00 Build 0)  -->
<svg version="1.1" xmlns="http://www.w3.org/2000/svg" xmlns:xlink="http://www.w3.org/1999/xlink" x="0px" y="0px"
	 viewBox="0 0 750 500" style="enable-background:new 0 0 750 500;" xml:space="preserve">
<g id="BACKGROUND">
	<g>
		<g>
			<g>
				<rect x="0" y="0" style="fill:#2E4050;" width="750" height="500"/>
			</g>
		</g>
		<g style="opacity:0.42;">
			<path style="fill:#2E2F38;" d="M633.581,102.178c-41.363,20.073-81.347,54.344-89.576,101.83
				c-2.025,11.684-1.963,23.687-0.066,35.383c1.711,10.548,4.336,22.284,10.031,31.453c10.065,16.202,62.65,67.848,20.994,107.488
				c-12.207,11.616-28.611,12.192-44.604,10.662c-17.577-1.682-35.156-3.345-52.571-6.302c-19.411-3.296-39.199-7.249-58.974-5.325
				c-8.848,0.861-17.251,2.968-25.215,6.942c-7.115,3.549-13.762,7.954-20.475,12.192c-11.449,7.228-24.645,15.733-38.821,14.437
				c-14.373-1.314-25.99-12.097-35.623-21.885c-11.3-11.482-22.137-23.252-36.75-30.643c-7.604-3.845-15.96-6.022-24.517-5.394
				c-9.43,0.692-17.968,4.642-25.998,9.39c-10.059,5.948-20.624,15.08-33.137,13.075c-7.697-1.234-14.425-5.866-20.443-10.548
				c-5.831-4.536-11.333-9.464-16.793-14.434c-9.478-8.626-19.249-18.026-31.816-21.819c-16.016-4.833-32.486,0.724-47.588,6.141
				c-16.712,5.995-32.919,13.402-48.366,22.157C8.776,359.527,4.356,362.204,0,364.98V500h750V75.136
				C710.133,80.009,670.066,84.472,633.581,102.178z"/>
			<path style="fill:#2E2F38;" d="M158.367,145.648c15.439,0,30.097-6.998,43.513-14.185c14.18-7.596,27.465-16.714,41.538-24.493
				c25.165-13.911,52.552-23.388,81.637-21.857c15.846,0.834,31.664,4.442,46.549,9.877c14.538,5.309,28.526,12.847,43.984,15.204
				c32.97,5.027,63.784-16.841,84.738-40.039c9.586-10.612,17.224-22.85,28.258-32.117c8.468-7.111,18.321-12.152,29.091-14.689
				c24.499-5.77,49.873,0.011,74.515-4.148c13.474-2.274,27.065-7.172,36.8-17.127c0.653-0.668,1.283-1.363,1.898-2.075H83.1
				C83.1,0,52.966,145.648,158.367,145.648z"/>
			
				<ellipse transform="matrix(0.4201 -0.9075 0.9075 0.4201 17.8471 660.5834)" style="fill:#2E2F38;" cx="525.791" cy="316.327" rx="23.358" ry="41.299"/>
			<circle style="fill:#2E2F38;" cx="457.735" cy="323.982" r="14.711"/>
			<ellipse style="fill:#2E2F38;" cx="466.382" cy="284.638" rx="8.646" ry="12.874"/>
		</g>
	</g>
</g>
<g id="OBJECTS">
	<g>
		<g>
			<path style="fill:#C83A3E;" d="M141.232,345.907c18.937-61.603-19.464-88.984-53.195-103.814
				c-27.324-12.013-22.618-44.479-26.38-74.297c-3.812-30.209-27.663-53.069-61.255-49.751v357.023
				C0.402,475.067,117.767,422.243,141.232,345.907z"/>
			<g>
				<path style="fill:#FFFFFF;" d="M135.214,264.534c-2.164-6.874-7.034-12.165-12.728-16.379
					c-6.266-4.638-13.392-7.887-20.197-11.624c-7.474-4.104-13.933-9.355-19.822-15.517c-6.427-6.725-12.207-14.259-16.41-22.586
					c-4.491-8.897-5.662-18.9-6.768-28.676c-0.938-8.289-1.834-16.587-4.359-24.571c-2.423-7.662-5.862-15.036-9.97-21.935
					c-8.355-14.032-19.704-26.829-33.629-35.517C7.758,85.5,3.952,83.552,0,82.002v6.925c5.872,2.583,11.357,6.166,16.275,10.228
					c12.417,10.256,22.295,23.68,28.893,38.341c3.069,6.821,5.193,13.987,6.348,21.373c1.472,9.406,1.888,18.967,3.916,28.288
					c3.755,17.254,15.369,32.42,28.305,44.032c5.551,4.983,11.603,8.937,18.182,12.42c6.7,3.547,13.823,6.862,19.567,11.904
					c5.764,5.06,8.391,11.15,9.007,18.736c0.626,7.699,0.068,15.591-1.41,23.167c-3.387,17.363-15.886,28.399-27.648,40.574
					c-6.873,7.114-13.388,14.532-21,20.89C78.512,360.485,33.963,383.857,0,401.708v9.648c69.61-33.927,86.841-49.503,88.757-51.243
					c7.968-7.238,15.02-15.429,22.613-23.049c7.119-7.145,14.399-14.535,19.053-23.598c3.975-7.741,5.548-16.31,6.32-24.909
					C137.449,280.702,137.609,272.141,135.214,264.534z"/>
			</g>
			<g>
				<path style="fill:#E09C43;" d="M15.895,303.116c3.13,0.13,6.262,0.268,9.391,0.487l4.674,0.362
					c1.53,0.114,3.061,0.22,4.599,0.267c6.143,0.254,12.324,0.135,18.531-0.02c6.209-0.157,12.45-0.375,18.709-0.466
					c3.129-0.042,6.262-0.077,9.395-0.044l4.685,0.052c1.535,0.024,3.071-0.05,4.597-0.199c1.518-0.194,3.041-0.404,4.518-0.791
					c0.749-0.156,1.467-0.408,2.198-0.624c0.366-0.106,0.71-0.268,1.065-0.403c0.349-0.147,0.714-0.263,1.045-0.444
					c0.678-0.334,1.362-0.656,1.987-1.074c0.661-0.366,1.232-0.849,1.828-1.298c1.107-0.984,2.15-2.071,2.83-3.384
					c1.491-2.525,1.981-5.676,1.433-8.462c-0.333-1.387-0.915-2.7-1.782-3.848c-0.885-1.134-1.939-2.149-3.119-3.04
					c-2.388-1.763-5.117-3.125-7.927-4.397c-1.404-0.647-2.839-1.265-4.249-1.854c-1.402-0.625-2.846-1.172-4.278-1.737
					c-5.749-2.226-11.662-4.134-17.578-6.191c-5.921-2.029-11.863-4.266-17.59-7.127c-0.724-0.338-1.427-0.725-2.13-1.112
					l-2.11-1.162l-2.049-1.283c-0.684-0.426-1.37-0.848-2.02-1.332l-1.976-1.406c-0.668-0.456-1.27-1.005-1.908-1.504
					c-0.623-0.513-1.273-1.016-1.872-1.54c-0.594-0.525-1.193-1.048-1.77-1.589c-9.288-8.603-17.418-18.027-26.785-26.008
					c-2.509-2.13-5.113-4.144-7.832-5.976v-3.223c0.702,0.388-0.686,0.789,0,1.202c2.729,1.637,7.435,3.44,9.944,5.374
					c10.098,7.697,18.574,17.06,27.736,25.251l1.723,1.523c0.574,0.504,1.16,0.955,1.738,1.435c0.59,0.462,1.139,0.973,1.761,1.397
					l1.833,1.311c0.6,0.452,1.242,0.848,1.881,1.248l1.912,1.207c1.332,0.721,2.606,1.536,3.969,2.214
					c5.388,2.82,11.1,5.122,16.919,7.298c5.813,2.192,11.736,4.262,17.514,6.82c2.885,1.265,5.754,2.671,8.509,4.147
					c2.781,1.475,5.588,3.08,8.103,5.189c1.249,1.066,2.393,2.294,3.343,3.684c0.932,1.411,1.562,3.028,1.873,4.688l0.143,1.258
					c0.053,0.418-0.006,0.837-0.005,1.254c0.02,0.842-0.183,1.645-0.306,2.459c-0.044,0.411-0.213,0.795-0.314,1.192
					c-0.126,0.391-0.215,0.794-0.374,1.174c-0.359,0.743-0.624,1.531-1.108,2.206c-0.225,0.345-0.428,0.705-0.673,1.034l-0.79,0.946
					c-0.25,0.327-0.556,0.599-0.852,0.881c-0.303,0.273-0.579,0.58-0.905,0.823c-0.652,0.486-1.285,1.002-1.996,1.389
					c-0.681,0.443-1.411,0.78-2.137,1.127c-2.934,1.319-6.064,2.048-9.207,2.455c-1.576,0.165-3.153,0.343-4.738,0.371
					c-1.581,0.062-3.113,0.074-4.672,0.152c-3.104,0.162-6.206,0.366-9.307,0.647c-6.202,0.543-12.407,1.225-18.66,1.665
					c-6.253,0.413-12.562,0.63-18.884,0.247c-1.58-0.075-3.159-0.21-4.737-0.354l-4.65-0.438c-3.088-0.302-6.182-0.566-9.28-0.799
					c-5.092-0.397-10.196-0.712-15.307-1.004v-2.501C5.563,302.879,10.727,302.935,15.895,303.116z"/>
				<path style="fill:#E09C43;" d="M0.402,280.85c5.625,1.963,14.553,4.037,20.113,6.038c2.776,1.005,5.564,1.987,8.35,2.896
					c2.778,0.909,5.59,1.701,8.417,2.422c5.658,1.425,11.418,2.419,17.219,2.914l2.176,0.168l2.216,0.137l4.427,0.301
					c2.927,0.172,5.85,0.285,8.728,0.208c1.435-0.043,2.866-0.122,4.234-0.311c1.343-0.181,2.742-0.486,3.591-0.968l0.154-0.084
					l0.107-0.084c0.09-0.053,0.124-0.103,0.16-0.139c0.066-0.041,0.025-0.06,0.064-0.072c0.014-0.035,0.021-0.097,0.053-0.137
					c0.048-0.152,0.035-0.408-0.195-0.837c-0.456-0.844-1.454-1.81-2.525-2.631c-2.18-1.675-4.737-3.093-7.32-4.414
					c-2.598-1.32-5.27-2.521-7.982-3.714c-0.682-0.302-1.356-0.596-2.072-0.932l-2.027-1c-1.337-0.678-2.671-1.364-3.984-2.087
					c-2.632-1.437-5.217-2.96-7.749-4.57c-5.056-3.207-9.944-6.82-14.317-10.928c-4.389-4.075-8.506-8.36-12.675-12.565
					c-4.153-4.216-8.371-8.356-12.931-12.09c-1.149-0.919-5.046-1.821-6.232-2.692c-0.914-0.619,0.927-1.277,0-1.877v-1.075
					c2.439,1.389,4.781,2.955,7.016,4.64c4.775,3.594,9.205,7.603,13.546,11.663c4.32,4.08,8.548,8.234,12.978,12.098
					c4.4,3.885,9.152,7.27,14.185,10.297c2.508,1.516,5.07,2.948,7.675,4.295c2.609,1.336,5.229,2.685,7.904,3.78
					c2.735,1.154,5.493,2.344,8.204,3.671c2.71,1.341,5.399,2.757,7.959,4.657c1.264,0.978,2.555,2.016,3.557,3.772
					c0.114,0.239,0.237,0.459,0.332,0.72c0.087,0.275,0.178,0.542,0.239,0.83c0.039,0.309,0.082,0.616,0.081,0.931
					c-0.028,0.321-0.053,0.653-0.13,0.962c-0.1,0.305-0.192,0.605-0.338,0.901c-0.174,0.29-0.361,0.625-0.578,0.832
					c-0.213,0.239-0.437,0.456-0.657,0.61l-0.337,0.251l-0.328,0.194c-1.759,0.962-3.342,1.201-4.915,1.456
					c-1.569,0.227-3.104,0.319-4.632,0.376c-3.052,0.103-6.063,0.004-9.057-0.15l-4.451-0.271c-1.434-0.076-2.996-0.159-4.485-0.286
					c-6.018-0.532-11.983-1.58-17.823-3.07c-2.92-0.747-5.8-1.637-8.648-2.605c-2.839-0.973-5.632-2.004-8.417-3.06
					c-5.564-2.12-13.355-4.374-18.88-6.46v-0.856v-3.195V280.85z"/>
				<path style="fill:#E09C43;" d="M0.402,184.841c2.55,3.027,9.327,5.589,12.719,7.228c0.427,0.198,0.844,0.414,1.286,0.584
					c0.428,0.18,0.871,0.362,1.361,0.545c0.951,0.367,1.918,0.728,2.915,1.158c0.993,0.427,2.033,0.911,3.061,1.586
					c1.028,0.668,1.993,1.549,2.761,2.503c1.519,1.918,2.427,3.978,3.252,5.878c0.832,1.903,1.607,3.809,2.39,5.703
					c1.546,3.787,3.033,7.529,4.868,11.012c1.838,3.477,4.016,6.7,6.66,9.541c0.641,0.728,1.35,1.394,2.048,2.073
					c0.699,0.679,1.461,1.348,2.204,1.987c1.498,1.282,3.041,2.479,4.658,3.491c1.611,1.018,3.297,1.861,5.029,2.381
					c0.873,0.269,1.721,0.454,2.626,0.544c0.906,0.097,1.858,0.122,2.85,0.122c1.98,0.004,4.137-0.108,6.417,0.219
					c0.567,0.08,1.141,0.195,1.711,0.34c0.279,0.08,0.583,0.154,0.84,0.242l0.766,0.264c1.032,0.333,2.014,0.763,3.003,1.173
					c3.904,1.746,7.503,3.942,10.9,6.345c3.403,2.397,6.63,4.976,9.799,7.579c1.598,1.302,3.146,2.6,4.753,3.83l4.874,3.739
					c3.255,2.514,6.482,5.118,9.434,8.055c1.472,1.471,2.872,3.028,4.129,4.712c1.243,1.69,2.382,3.501,3.108,5.527
					c0.748,1.994,1.042,4.261,0.688,6.367c-0.289,2.109-0.945,4.187-2.012,6.017c-2.07,3.708-5.137,6.69-8.472,9.151
					c-3.337,2.485-6.964,4.53-10.708,6.296c-3.746,1.816-7.743,3.136-11.811,4.052c-8.164,1.853-16.536,2.012-24.712,2.137
					l-6.132,0.052c-2.061,0.03-4.12,0.007-6.177-0.036c-4.113-0.076-8.218-0.215-12.31-0.424l-12.253-0.562
					c-4.079-0.18-8.143-0.336-12.219-0.389c-4.139-0.052-10.211-0.315-14.302-0.581c-0.657-0.041,0.656-0.088,0-0.132v-2.787
					c0.698,0.018-0.697,0.031,0,0.049c4.088,0.101,10.258,0.17,14.307,0.136c4.111-0.051,8.232-0.022,12.336,0.073l12.288,0.409
					c4.088,0.128,8.165,0.299,12.236,0.401l12.25,0.232c8.166,0.216,16.293,0.482,24.221-0.912c3.956-0.683,7.847-1.75,11.559-3.322
					c1.872-0.771,3.685-1.672,5.466-2.625c1.782-0.953,3.507-2.01,5.142-3.186c3.241-2.358,6.254-5.166,8.148-8.656
					c0.987-1.718,1.564-3.631,1.816-5.563c0.319-1.944,0.012-3.867-0.709-5.685c-0.697-1.822-1.799-3.495-3.012-5.067
					c-1.251-1.553-2.659-2.99-4.138-4.354c-2.969-2.724-6.231-5.146-9.551-7.5l-5.043-3.504c-1.701-1.18-3.353-2.437-4.988-3.646
					c-3.285-2.432-6.561-4.835-9.931-7.04c-3.379-2.182-6.839-4.204-10.459-5.703c-0.91-0.351-1.816-0.716-2.739-0.995
					c-0.957-0.338-1.714-0.511-2.63-0.63c-1.785-0.231-3.739-0.116-5.846-0.074c-1.054,0.018-2.151,0.014-3.284-0.087
					c-1.135-0.092-2.303-0.321-3.39-0.637c-2.202-0.622-4.226-1.605-6.092-2.736c-1.874-1.129-3.595-2.423-5.23-3.772
					c-0.821-0.681-1.61-1.35-2.394-2.082c-0.784-0.734-1.578-1.458-2.307-2.253c-3.013-3.086-5.461-6.712-7.446-10.466
					c-1.981-3.767-3.556-7.633-5.067-11.437c-0.753-1.9-1.493-3.797-2.274-5.656c-0.764-1.86-1.546-3.579-2.562-4.894
					c-1.821-2.547-5.866-3.35-9.844-5.421c-1.968-1.016-3.788-2.325-5.432-3.773c-1.646-1.453-4.068-3.072-5.4-4.715
					c-0.337-0.417,0.322-0.84,0-1.264v-6.075c0.049,0.061-0.049,0.123,0,0.184C1.68,181.742-0.89,183.333,0.402,184.841z"/>
				<path style="fill:#E09C43;" d="M18.195,275.501c2.84,0.849,5.679,1.697,8.528,2.471c1.425,0.384,2.853,0.75,4.284,1.058
					c0.715,0.152,1.431,0.287,2.142,0.387c0.483,0.067,0.973,0.114,1.433,0.117c-0.233-1.774-1.274-3.446-2.48-4.901
					c-1.388-1.628-3.034-3.062-4.768-4.381c-3.475-2.645-7.29-4.86-11.154-6.97l-5.848-3.12c-1.97-1.035-8.029-2.189-9.93-3.31
					c-1.387-0.826,1.375-1.67,0-2.512v-2.099c1.662,1.075,3.326,2.145,5.001,3.194c1.878,1.175,3.735,2.32,5.669,3.366l5.818,3.2
					c3.863,2.182,7.696,4.465,11.262,7.184c1.776,1.365,3.481,2.855,4.959,4.603c0.726,0.884,1.395,1.834,1.916,2.889
					c0.518,1.05,0.881,2.229,0.897,3.458l0.008,0.587l-0.563,0.06c-0.864,0.093-1.628,0.008-2.391-0.086
					c-0.758-0.102-1.501-0.238-2.237-0.39c-1.471-0.307-2.918-0.67-4.359-1.049c-2.879-0.765-5.729-1.598-8.577-2.431
					c-5.692-1.672-11.669-3.308-17.401-4.736c-0.093-0.023,0.093-0.045,0-0.068v-1.707c0.23,0.06-0.229,0.118,0,0.178
					C6.16,272.016,12.514,273.804,18.195,275.501z"/>
			</g>
			<g>
				<path style="fill:#4993D1;" d="M108.007,180.481c0.83,7.196,1.718,12.489,8.297,16.657c4.517,2.861,11.664,4.163,15.506,7.76
					c4.601,4.308-1.412,27.892-28.857,16.571c-10.884-4.49-19.555-16.472-22.217-27.968c-2.498-10.788,5.443-26.396,18.12-25.015
					C105.26,169.185,107.36,174.87,108.007,180.481z"/>
			</g>
			
				<ellipse transform="matrix(0.7176 -0.6964 0.6964 0.7176 -92.1946 63.3316)" style="fill:#E09C43;" cx="32" cy="145.356" rx="6.439" ry="10.827"/>
			<path style="fill:#4993D1;" d="M122.797,227.744c-3.508-0.225-6.865,1.274-7.015,3.613c-0.15,2.338,2.572,4.416,6.08,4.641
				c3.508,0.225,6.473-1.488,6.623-3.827C128.635,229.833,126.305,227.969,122.797,227.744z"/>
			<path style="fill:#4993D1;" d="M126.269,187.165c-5.454-2.914-8.048-7.967-9.991-4.331c-1.943,3.636,0.903,8.946,6.358,11.861
				c5.454,2.914,11.451,2.329,13.394-1.307C137.973,189.752,131.724,190.079,126.269,187.165z"/>
			<path style="fill:#4993D1;" d="M140.596,212.837c-2.933-0.175-1.556,1.795-1.722,4.573c-0.166,2.779-1.812,5.315,1.121,5.49
				c2.933,0.175,4.258,0.409,4.424-2.37C144.585,217.751,143.529,213.012,140.596,212.837z"/>
		</g>
	</g>
	<g>
		<g>
			<g>
				<path style="fill:#E09C43;" d="M490.857,406.524c-20.2,2.69-41.51,0.881-60.634,8.322c-10.25,3.988-18.903,9.971-27.254,17.073
					c-9.045,7.692-17.673,16.072-28.034,22.02c-20.927,12.012-45.204,16.908-69.136,14.401c-24.6-2.578-47.923-11.428-72.161-15.886
					c-11.212-2.062-22.496-3.459-33.686-0.569c-9.475,2.447-18.284,7.37-25.279,14.221c-9.545,9.347-14.645,21.483-14.938,34.014
					h524.392C684.128,500.12,573.523,395.516,490.857,406.524z"/>
			</g>
		</g>
		<path style="fill:#C83A3E;" d="M408.136,442.437c15.82,13.928,13.886,24.719,6.242,33.401s-18.103,11.968-33.923-1.96
			c-15.82-13.928-22.448-32.258-14.804-40.94C373.294,424.256,392.316,428.509,408.136,442.437z"/>
		
			<ellipse transform="matrix(0.8399 -0.5428 0.5428 0.8399 -194.3352 228.3779)" style="fill:#E09C43;" cx="289.926" cy="443.581" rx="14.705" ry="8.745"/>
		
			<ellipse transform="matrix(0.1247 -0.9922 0.9922 0.1247 -161.5673 647.373)" style="fill:#E09C43;" cx="286.126" cy="415.258" rx="9.59" ry="5.823"/>
		<path style="fill:#E09C43;" d="M252.52,408.143c15.82,13.928,15.159,23.273,9.085,30.172c-6.074,6.899-15.259,8.739-31.079-5.19
			s-23.722-30.812-17.648-37.71C218.951,388.516,236.7,394.215,252.52,408.143z"/>
		<g>
			<path style="fill:#C83A3E;" d="M454.622,500.12h52.898c4.018-8.569,3.481-19.42,2.201-28.154
				c-2.042-13.93-8.134-25.786-16.089-37.259c-8.099-11.682-16.589-25.326-27.836-34.228c-11.841-9.372-24.705-12.12-39.355-10.64
				c-8.498,0.859-26.34,3.242-27.453,13.52c-1.081,9.991,9.467,19.678,15.428,26.411c8.962,10.123,17.989,20.156,26.089,30.927
				C449.483,472.637,453.928,486.131,454.622,500.12z"/>
		</g>
		<path style="fill:#C83A3E;" d="M531.846,441.168c2.737,11.492-0.754,22.169-7.798,23.846c-7.044,1.677-7.019-8.173-9.756-19.666
			c-2.737-11.492-7.199-20.274-0.156-21.952C521.18,421.719,529.109,429.676,531.846,441.168z"/>
	</g>
	<g>
		<g>
			<path style="fill:#4993D1;" d="M750,39.185c-30.276-13.728-71.332-15.022-103.874-5.868c-30.26,8.513-63.696,28.85-75.85,55.478
				c-14.587,31.96,11.716,54.377,38.767,71.883c25.768,16.677,56.267,33.121,65.929,60.441
				c9.233,26.105-10.131,41.782-16.349,67.798C637.846,375.838,750,421.428,750,421.428L750,39.185z"/>
		</g>
		<path style="fill:#C83A3E;" d="M611.05,370.836c49.886,79.034,119.316,43.614,102.678-7.41
			c-2.235-6.853-9.235-11.714-17.04-13.895c-8.069-2.256-19.78,0.142-26.925-3.679c-7.092-3.793-4.26-14.384-6.582-20.926
			c-3.075-8.662-7.723-17.302-17.225-21.572c-20.524-9.225-44.65,11.999-46.333,30.166
			C598.321,347.575,603.659,359.125,611.05,370.836z"/>
		<g>
			<g>
				<g>
					<path style="fill:#E09C43;" d="M734.393,142.39c-6.9,0.363-39.118-5.512-24.694-17.958c5.979-5.159,16.633-4.041,23.927-3.677
						c5.281,0.263,10.872,0.025,16.373-0.567v-11.672c-9.674,0.973-19.495,0.804-22.47,0.797
						c-11.506-0.028-38.341,3.095-36.835,20.254c1.173,13.361,21.711,21.566,32.951,22.721c6.431,0.661,17.022,2.333,26.354,1.398
						v-14.612C742.937,140.405,736.116,142.3,734.393,142.39z"/>
				</g>
				<g>
					<path style="fill:#E09C43;" d="M750,163.066c-13.553,2.552-26.204,10.636-40.792,8.56c-8.486-1.208-9.927-7.119-13.67-13.564
						c-4.152-7.149-9.307-8.549-16.519-11.787c-9.216-4.138-28.281-14.251-26.134-26.686c2.48-14.362,23.535-19.431,34.999-22.582
						c14.663-4.03,32.863-9.255,48.151-8.489c3.112,0.156,8.387-0.202,13.964-0.142v-7.619c-12.679,0.826-25.486,0.904-37.94,2.082
						c-17.971,1.7-34.249,5.606-50.817,12.328c-10.71,4.345-36.268,21.149-26.86,35.3c3.614,5.435,9.844,10.284,15.807,12.856
						c6.624,2.857,13.463,4.015,18.592,9.711c8.888,9.87,8.966,24.421,22.577,30.062c13.991,5.798,32.311,5.126,46.353,0.129
						c4.652-1.656,8.65-3.092,12.286-5.438V163.066z"/>
				</g>
				
					<ellipse transform="matrix(0.5663 -0.8242 0.8242 0.5663 149.5771 610.5131)" style="fill:#E09C43;" cx="654.894" cy="163.129" rx="5.182" ry="10.405"/>
				<path style="fill:#E09C43;" d="M690.68,193.104c-1.621,2.359-6.774,1.633-11.511-1.621s-7.262-7.805-5.641-10.164
					s3.84,2.638,8.576,5.892C686.841,190.466,692.301,190.745,690.68,193.104z"/>
			</g>
			<path style="fill:#E09C43;" d="M735.771,198.556c0,4.758-6.919,8.615-15.454,8.615c-8.535,0-15.454-3.857-15.454-8.615
				s6.919-3.266,15.454-3.266C728.852,195.29,735.771,193.798,735.771,198.556z"/>
			<g>
				<path style="fill:#FFFFFF;" d="M750,318.915c-0.928-0.821-2.011-1.497-3.294-1.969c-2.927-1.075-6.079-1.317-9.045-2.422
					c-4.814-1.793-9.462-4.01-14.314-5.705c-8.709-3.044-17.996-3.593-26.709-6.718c-8.456-3.033-16.023-7.676-23.346-12.814
					c-12.897-9.049-28.828-18.967-35.461-33.909c-7.139-16.081-0.168-34.53-8.017-50.462c-6.769-13.74-20.275-22.631-27.053-36.325
					c-13.307-26.885-1.644-61.726,25.704-74.354c20.389-9.415,42.191-15.534,64.436-18.511c11.495-1.538,23.13-2.679,34.716-3.239
					c6.38-0.308,12.824-0.489,19.177,0.283c1.072,0.13,2.14,0.279,3.207,0.435v-8.068c-5.486-0.674-10.981-1.266-16.625-1.157
					c-10.881,0.209-21.71,1.257-32.526,2.401c-20.398,2.156-40.419,6.457-59.689,13.559c-15.686,5.781-30.424,12.627-40.324,26.66
					c-8.56,12.135-12.655,27.016-11.86,41.81c0.857,15.941,8.086,29.162,18.493,40.893c5.143,5.797,10.812,11.485,14.398,18.435
					c4.151,8.047,3.934,16.912,4.01,25.744c0.079,9.261,0.85,18.354,5.003,26.8c3.575,7.27,9.184,13.27,15.14,18.657
					c6.327,5.724,13.274,10.703,20.231,15.622c7.246,5.124,14.673,10.062,22.857,13.578c9.827,4.222,20.338,4.824,30.342,8.177
					c5.13,1.72,10.008,4.092,15.077,5.973c2.892,1.073,7.878,1.257,10.151,3.234c3.171,2.757,2.838,9.812,3.61,13.622
					c0.514,2.537,1.104,5.058,1.712,7.574V318.915z"/>
			</g>
		</g>
	</g>
	<g>
		<g>
			<g>
				<g>
					<path style="fill:#4993D1;" d="M96.057,0c-15.17,12.371-6.751,33.068,3.365,46.364c9.407,12.364,22.03,22.104,51.456,27.07
						c35.317,5.96,60.087-4.787,79.433-15.84c18.428-10.529,36.599-22.99,66.789-26.938c28.847-3.772,46.171,4.139,74.919,6.68
						C468.066,45.825,518.445,0,518.445,0L96.057,0z"/>
				</g>
			</g>
			<g>
				
					<ellipse transform="matrix(0.9607 -0.2775 0.2775 0.9607 -8.0302 64.4387)" style="fill:#E09C43;" cx="223.62" cy="60.587" rx="44.157" ry="23.019"/>
				<ellipse style="fill:#E09C43;" cx="161.274" cy="55.896" rx="14.683" ry="9.164"/>
				<ellipse style="fill:#E09C43;" cx="168.616" cy="76.527" rx="7.342" ry="4.731"/>
			</g>
		</g>
		<g>
			<path style="fill:#FFFFFF;" d="M288.065,12.114c3.324,6.376,5.23,13.365,7.318,20.21c1.939,6.36,4.027,12.775,7.529,18.473
				c3.482,5.666,9.996,14,17.538,10.981c3.797-1.52,6.855-4.681,9.811-7.4c3.451-3.175,7.016-6.221,10.541-9.311
				c3.679-3.226,7.315-6.508,10.722-10.024c3.293-3.399,6.238-7.097,9.71-10.325c6.511-6.053,14.098-10.949,22.105-14.774
				C389.63,6.939,396.345,4.18,402.003,0h-16.335c-6.483,4.556-12.295,9.713-14.616,11.452c-6.376,4.777-13.094,10.57-18.752,16.255
				c-5.703,5.73-9.179,13.232-14.748,18.829c-10.037,10.087-28.089,13.888-34.065-2.089c-2.478-6.624-2.436-14.136-2.508-21.127
				c-0.097-9.381-3.518-10.504-9.552-16.737c-2.16-2.231-3.991-4.359-5.435-6.583h-7.946
				C282.233,3.206,285.573,7.337,288.065,12.114z"/>
		</g>
		<g>
			<path style="fill:#FFFFFF;" d="M407.73,15.987c-11.362,5.716-22.006,13.507-30.659,22.833c-4.715,5.081-9.225,10.24-14.301,14.98
				c-4.87,4.548-9.942,8.873-14.953,13.264c-4.666,4.088-9.078,8.534-13.953,12.374c-3.198,2.519-6.907,4.922-11.111,5.033
				c-4.564,0.12-8.52-2.611-11.67-5.654c-3.377-3.262-6.32-6.921-8.736-10.947c-4.591-7.649-7.358-16.219-9.941-24.706
				c-2.673-8.782-5.13-17.736-9.318-25.949c-3.519-6.9-8.321-12.788-14.483-17.215h-13.559c4.911,4.179,9.465,8.75,13.376,13.312
				c7.663,8.937,16.698,18.23,20.12,29.722c2.779,9.334,3.552,19.404,7.249,28.429c8.172,19.948,32.144,28.215,48.853,14.478
				c8.557-7.035,13.536-17.693,19.107-26.877c7.951-13.11,17.453-21.346,31.236-28.266C404.329,26.107,445.943,16.271,446.93,0
				h-9.402C428.556,6.892,417.774,10.934,407.73,15.987z"/>
		</g>
	</g>
</g>
</svg>
