<?xml version="1.0" encoding="utf-8"?>
<!-- Generator: Adobe Illustrator 27.5.0, SVG Export Plug-In . SVG Version: 6.00 Build 0)  -->
<svg version="1.1" xmlns="http://www.w3.org/2000/svg" xmlns:xlink="http://www.w3.org/1999/xlink" x="0px" y="0px"
	 viewBox="0 0 750 500" style="enable-background:new 0 0 750 500;" xml:space="preserve">
<g id="BACKGROUND">
	<g>
		<g>
			<rect style="fill:#2E4050;" width="750" height="500"/>
		</g>
		<path style="opacity:0.42;fill:#2E2F38;" d="M30.68,164.392c19.073,1.908,36.415-8.102,50.602-19.797
			c13.632-11.238,25.51-24.447,39.475-35.296c14.733-11.445,29.696-21.949,47.586-27.848c17.942-5.916,36.132-6.198,54.738-7.836
			c8.455-0.744,16.815-2.401,24.328-6.496c6.575-3.585,12.382-8.455,18.388-12.887c27.387-20.211,65.754-21.693,97.702-12.911
			c15.15,4.165,29.743,11.05,40.013,23.247c10.018,11.898,15.905,26.489,20.6,41.149c5.055,15.782,8.849,32.048,15.556,47.255
			c7.253,16.446,18.227,30.287,33.836,39.492c20.415,12.039,44.598,12.845,67.277,7.9c20.932-4.564,41.631-11.519,60.28-22.161
			c38.062-21.719,67.695-57.672,90.038-94.753c11.797-19.579,21.594-40.284,31.981-60.625C726.956,15.23,730.816,7.626,734.63,0H0
			v151.067C8.864,158.296,19.61,163.284,30.68,164.392z"/>
		<path style="opacity:0.42;fill:#2E2F38;" d="M739.397,322.48c-9.931,17.716-21.778,34.562-36.499,48.643
			c-14.42,13.793-31.583,24.235-50.176,31.41c-38.415,14.823-83.135,17.225-123.039,7.265c-18.601-4.643-35.279-12.884-51.52-22.911
			c-15.901-9.817-31.588-20.436-49.637-25.937c-20.207-6.16-40.48-4.675-60.506,1.281c-17.949,5.338-35.359,13.389-54.019,16.026
			c-17.17,2.427-33.269-1.827-46.244-13.553c-16.168-14.612-20.726-36.725-32.815-54.161
			c-24.637-35.533-72.989-46.194-113.312-36.433c-22.932,5.551-44.34,16.138-64.729,27.782
			c-17.967,10.261-35.849,21.023-52.745,32.983c-1.393,0.986-2.773,1.994-4.155,2.998V500h750V301.914
			C746.698,308.888,743.168,315.753,739.397,322.48z"/>
	</g>
</g>
<g id="OBJECTS">
	<g>
		<path style="fill:#C83A3E;" d="M586.033,28.351c7.211,7.101,16.369,11.79,24.953,16.971c8.634,5.21,16.382,10.997,22.567,19.042
			c14.336,18.65,16.438,44.001,32.856,61.297c6.988,7.362,15.987,13.341,24.983,17.983c7.306,3.77,15.107,6.594,23.193,8.12
			c12.17,2.297,24.066,1.381,35.414-1.774V0H573.964C574.145,10.584,578.481,20.913,586.033,28.351z"/>
		<path style="fill:#FFFFFF;" d="M443.636,47.392c15.165,42.52,72.254-5.973,125.407-5.973c61.995,0,33.95-40.905,33.859-41.419
			H309.8C313.951,44.687,422.88-10.805,443.636,47.392z"/>
		<g>
			<path style="fill:#4993D1;" d="M73.207,32.591c4.31,2.074,10.23-0.164,15.197,2.363c6.075,3.09,7.642,7.043,11.841,12.239
				c7.688,9.513,13.249,18.021,26.925,17.156c15.337-0.969,17.259-15.75,30.368-20.525c10.006-3.645,27.12,0.179,37.731-0.204
				c21.938-0.792,51.529-17.54,51.034-43.619H55.325C56.372,13.776,61.234,26.829,73.207,32.591z"/>
		</g>
		<g>
			<path style="fill:#E09C43;" d="M7.641,95.43c7.198,8.039,15.62,15.73,25.584,20.154c9.066,4.025,19.441,4.196,27.19-2.702
				c8.961-7.977,11.248-21.249,15.773-31.83c2.26-5.285,5.102-10.499,9.41-14.403c4.913-4.451,11.352-6.865,17.61-8.726
				c7.067-2.101,14.375-3.59,21.103-6.692c6.281-2.896,11.662-7.475,16.065-12.776c7.363-8.865,10.937-20.002,10.386-31.487
				c-0.112-2.342-0.383-4.666-0.78-6.968H0v86.106C2.412,89.339,4.976,92.453,7.641,95.43z"/>
		</g>
		<g>
			<g>
				<path style="fill:#4993D1;" d="M630.473,0c-1.393,3.764-2.785,7.873-4.349,12.497c-6.748,19.953-20.003,47.613-40.697,56.085
					c-19.407,7.944-49.833,8.693-57.152-12.853c-5.056-14.885,1.512-39.163-7.095-51.253c-1.23-1.728-2.75-3.192-4.45-4.476h-73.095
					c8.933,6.953,18.731,12.831,26.905,20.796c37.148,36.201-11.142,107.213,58.228,116.528
					c27.157,3.647,46.676-0.226,70.453-14.397c25.849-15.406,42.675-36.447,55.696-63.049
					c14.769-30.174,36.057-36.492,64.851-47.464C728.398,9.126,737.712,4.834,747.1,0H630.473z M578.051,107.019
					c-0.444,3.898-4.144,7.28-7.033,9.537c-4.724,3.69-10.225,5.68-16.088,6.75c-13.742,2.506-29.589-0.186-40.478-9.366
					c-9.089-7.663-9.739-30.411-9.739-30.411c6.957,2.7,12.74,7.653,19.013,11.586c7.801,4.89,16.456,7.384,25.677,7.286
					c7.526-0.08,15.356-1.739,22.852-0.739C575.225,102.058,578.45,103.523,578.051,107.019z"/>
			</g>
		</g>
		<path style="fill:#4993D1;" d="M-0.013,373.016V500l504.202,0c6.004-74.327-81.921-134.107-222.635-50.204
			c-20.688,12.335-107.365,25.477-162.332-91.095C102.205,322.614,53.813,338.102-0.013,373.016z"/>
		<g>
			<path style="fill:#E09C43;" d="M590.225,464.334c1.298-7.112,3.541-14.02,6.123-20.76c2.304-6.015,3.488-12.154,3.914-18.577
				c0.724-10.92-0.595-22.328,2.535-32.962c1.448-4.918,3.996-9.43,7.651-13.046c4.382-4.334,10.078-7.26,15.606-9.857
				c24.232-11.386,51.441-14.318,77.74-10.277c15.241,2.342,30.657,6.796,46.206,5.36v-21.533
				C646.459,294.458,521.191,412.512,565.893,500h27.486C589.285,488.477,588.011,476.47,590.225,464.334z"/>
		</g>
		<path style="fill:#C83A3E;" d="M150.817,419.047c105.244-20.487,167.91,88.877,244.672,61.267
			C602.953,405.696,632.295,500,632.295,500l-585.32,0C46.975,500,98.145,429.301,150.817,419.047z"/>
		<path style="fill:#E09C43;" d="M748.329,402.391c-10.955,0.5-21.587-2.45-32.328-4.074c-19.583-2.961-40.168-0.514-57.916,8.618
			c-4.144,2.132-8.172,4.571-10.951,8.409c-2.312,3.193-3.507,7.001-4.083,10.866c-1.203,8.07-0.195,16.296-1.411,24.374
			c-0.732,4.865-2.658,9.23-4.191,13.868c-1.595,4.824-2.835,9.797-3.252,14.872c-0.589,7.165,0.704,14.063,3.07,20.676H750v-97.709
			C749.442,402.332,748.885,402.366,748.329,402.391z"/>
		<path style="fill:#E09C43;" d="M73.35,433.535C10.82,432.109-0.013,500-0.013,500H277.75
			C137.897,500,135.88,434.961,73.35,433.535z"/>
		<g>
			<g>
				<g>
					<path style="fill:#FFFFFF;" d="M705.719,92.662c1.643,0,2.974,1.337,2.974,2.987s-1.332,2.986-2.974,2.986
						c-1.643,0-2.975-1.337-2.975-2.986S704.076,92.662,705.719,92.662z"/>
				</g>
				<g>
					<path style="fill:#FFFFFF;" d="M705.719,67.04c1.643,0,2.974,1.337,2.974,2.987c0,1.65-1.332,2.987-2.974,2.987
						c-1.643,0-2.975-1.337-2.975-2.987C702.744,68.378,704.076,67.04,705.719,67.04z"/>
				</g>
				<g>
					<path style="fill:#FFFFFF;" d="M705.719,41.419c1.643,0,2.974,1.337,2.974,2.987c0,1.649-1.332,2.987-2.974,2.987
						c-1.643,0-2.975-1.337-2.975-2.987C702.744,42.756,704.076,41.419,705.719,41.419z"/>
				</g>
				<g>
					<path style="fill:#FFFFFF;" d="M705.719,15.798c1.643,0,2.974,1.337,2.974,2.987c0,1.649-1.332,2.987-2.974,2.987
						c-1.643,0-2.975-1.337-2.975-2.987C702.744,17.135,704.076,15.798,705.719,15.798z"/>
				</g>
				<g>
					<path style="fill:#FFFFFF;" d="M728.658,92.662c1.643,0,2.975,1.337,2.975,2.987s-1.332,2.986-2.975,2.986
						s-2.975-1.337-2.975-2.986S727.016,92.662,728.658,92.662z"/>
				</g>
				<g>
					<path style="fill:#FFFFFF;" d="M728.658,67.04c1.643,0,2.975,1.337,2.975,2.987c0,1.65-1.332,2.987-2.975,2.987
						s-2.975-1.337-2.975-2.987C725.684,68.378,727.016,67.04,728.658,67.04z"/>
				</g>
				<g>
					<ellipse style="fill:#FFFFFF;" cx="728.658" cy="44.406" rx="2.975" ry="2.987"/>
				</g>
				<g>
					<ellipse style="fill:#FFFFFF;" cx="728.658" cy="18.784" rx="2.975" ry="2.987"/>
				</g>
			</g>
			<g>
				<g>
					<g>
						<path style="fill:#FFFFFF;" d="M24.34,18.772c0,1.643-1.337,2.974-2.987,2.974c-1.649,0-2.986-1.332-2.986-2.974
							c0-1.643,1.337-2.975,2.986-2.975C23.003,15.798,24.34,17.129,24.34,18.772z"/>
					</g>
					<g>
						<path style="fill:#FFFFFF;" d="M49.962,18.772c0,1.643-1.337,2.974-2.987,2.974c-1.65,0-2.987-1.332-2.987-2.974
							c0-1.643,1.337-2.975,2.987-2.975C48.624,15.798,49.962,17.129,49.962,18.772z"/>
					</g>
					<g>
						<path style="fill:#FFFFFF;" d="M75.583,18.772c0,1.643-1.337,2.974-2.987,2.974c-1.649,0-2.987-1.332-2.987-2.974
							c0-1.643,1.337-2.975,2.987-2.975C74.246,15.798,75.583,17.129,75.583,18.772z"/>
					</g>
					<g>
						<path style="fill:#FFFFFF;" d="M101.204,18.772c0,1.643-1.337,2.974-2.987,2.974c-1.649,0-2.987-1.332-2.987-2.974
							c0-1.643,1.337-2.975,2.987-2.975C99.867,15.798,101.204,17.129,101.204,18.772z"/>
					</g>
					<g>
						<path style="fill:#FFFFFF;" d="M24.34,41.712c0,1.643-1.337,2.974-2.987,2.974c-1.649,0-2.986-1.332-2.986-2.974
							c0-1.643,1.337-2.975,2.986-2.975C23.003,38.737,24.34,40.069,24.34,41.712z"/>
					</g>
					<g>
						<path style="fill:#FFFFFF;" d="M49.962,41.712c0,1.643-1.337,2.974-2.987,2.974c-1.65,0-2.987-1.332-2.987-2.974
							c0-1.643,1.337-2.975,2.987-2.975C48.624,38.737,49.962,40.069,49.962,41.712z"/>
					</g>
					<g>
						<path style="fill:#FFFFFF;" d="M75.583,41.712c0,1.643-1.337,2.974-2.987,2.974c-1.649,0-2.987-1.332-2.987-2.974
							c0-1.643,1.337-2.975,2.987-2.975C74.246,38.737,75.583,40.069,75.583,41.712z"/>
					</g>
					<g>
						<path style="fill:#FFFFFF;" d="M101.204,41.712c0,1.643-1.337,2.974-2.987,2.974c-1.649,0-2.987-1.332-2.987-2.974
							c0-1.643,1.337-2.975,2.987-2.975C99.867,38.737,101.204,40.069,101.204,41.712z"/>
					</g>
				</g>
			</g>
			<g>
				<g>
					<path style="fill:#FFFFFF;" d="M654.769,456.571c0,1.643-1.337,2.975-2.987,2.975s-2.986-1.332-2.986-2.975
						c0-1.643,1.337-2.975,2.986-2.975S654.769,454.928,654.769,456.571z"/>
				</g>
				<g>
					<path style="fill:#FFFFFF;" d="M680.39,456.571c0,1.643-1.337,2.975-2.987,2.975c-1.65,0-2.987-1.332-2.987-2.975
						c0-1.643,1.337-2.975,2.987-2.975C679.053,453.596,680.39,454.928,680.39,456.571z"/>
				</g>
				<g>
					<path style="fill:#FFFFFF;" d="M706.012,456.571c0,1.643-1.337,2.975-2.987,2.975c-1.649,0-2.987-1.332-2.987-2.975
						c0-1.643,1.337-2.975,2.987-2.975C704.675,453.596,706.012,454.928,706.012,456.571z"/>
				</g>
				<g>
					<path style="fill:#FFFFFF;" d="M731.633,456.571c0,1.643-1.337,2.975-2.987,2.975c-1.649,0-2.987-1.332-2.987-2.975
						c0-1.643,1.337-2.975,2.987-2.975C730.296,453.596,731.633,454.928,731.633,456.571z"/>
				</g>
				<g>
					<path style="fill:#FFFFFF;" d="M654.769,479.511c0,1.643-1.337,2.974-2.987,2.974s-2.986-1.332-2.986-2.974
						c0-1.643,1.337-2.975,2.986-2.975S654.769,477.868,654.769,479.511z"/>
				</g>
				<g>
					<path style="fill:#FFFFFF;" d="M680.39,479.511c0,1.643-1.337,2.974-2.987,2.974c-1.65,0-2.987-1.332-2.987-2.974
						c0-1.643,1.337-2.975,2.987-2.975C679.053,476.536,680.39,477.868,680.39,479.511z"/>
				</g>
				<g>
					<path style="fill:#FFFFFF;" d="M706.012,479.511c0,1.643-1.337,2.974-2.987,2.974c-1.649,0-2.987-1.332-2.987-2.974
						c0-1.643,1.337-2.975,2.987-2.975C704.675,476.536,706.012,477.868,706.012,479.511z"/>
				</g>
				<g>
					<path style="fill:#FFFFFF;" d="M731.633,479.511c0,1.643-1.337,2.974-2.987,2.974c-1.649,0-2.987-1.332-2.987-2.974
						c0-1.643,1.337-2.975,2.987-2.975C730.296,476.536,731.633,477.868,731.633,479.511z"/>
				</g>
			</g>
		</g>
		<g>
			<path style="fill:#FFFFFF;" d="M173.092,321.961c-33.567-11.879-58.849,4.976-81.593,29.255
				c-10.822,11.553-20.941,24.603-37.108,28.482c-15.851,3.803-33.078,6.652-49.378,7.178c-1.683,0.054-3.352,0.07-5.013,0.066
				v55.937c11.922-9.974,21.227-24.052,34.132-32.605c14.43-9.564,33.241-7.57,47.571-17.038
				c13.238-8.746,24.324-22.289,40.851-28.006c16.358-5.658,33.457-2.38,42.54,12.813c17.413,29.126,8.446,52.088,20.189,55.567
				s10.424-23.383,14.82-35.753C210.793,367.778,205.985,333.601,173.092,321.961z"/>
		</g>
		<g>
			<path style="fill:#FFFFFF;" d="M153.573,412.746c1.454-6.74,1.303-15.159-3.87-22.214c-2.881-3.929-10.763-6.784-15.228-5.328
				l-4.662,5.559c-11.452,5.437-30.362,10.895-22.565,26.325c1.846,3.653,6.12,5.862,6.873,10.68
				c0.492,3.144-2.083,6.882-1.561,9.376c1.107,5.291,6.394,8.522,13.398,7.247C144.477,441.021,150.682,426.142,153.573,412.746z"
				/>
		</g>
	</g>
</g>
</svg>
